HIERARCHY
ROOT hip
{
  OFFSET 0.00112043 5.09927 -9.65472
  CHANNELS 6 Xposition Yposition Zposition Zrotation Xrotation Yrotation
  JOINT abdomen
  {
    OFFSET 0 -1.186 -1.5018
    CHANNELS 3 Zrotation Xrotation Yrotation
    JOINT abdomen2
    {
      OFFSET 0 9.964 0.2134
      CHANNELS 3 Zrotation Xrotation Yrotation
      JOINT chest
      {
        OFFSET 0 13.134 -3.2573
        CHANNELS 3 Zrotation Xrotation Yrotation
        JOINT neck
        {
          OFFSET 0 20.686 -1.6905
          CHANNELS 3 Zrotation Xrotation Yrotation
          JOINT head
          {
            OFFSET 0 7.238 -0.1237
            CHANNELS 3 Zrotation Xrotation Yrotation
            End Site
            {
              OFFSET 0 0 0
            }
          }
        }
        JOINT lCollar
        {
          OFFSET 1.7069 20.075 5.0056
          CHANNELS 3 Zrotation Xrotation Yrotation
          JOINT lShldr
          {
            OFFSET 13.6458 -0.047 -4.849
            CHANNELS 3 Zrotation Xrotation Yrotation
            JOINT lForeArm
            {
              OFFSET 28.3255 -0.9759 2.2888
              CHANNELS 3 Zrotation Xrotation Yrotation
              JOINT lHand
              {
                OFFSET 22.1583 -0.53 10.8316
                CHANNELS 3 Zrotation Xrotation Yrotation
                JOINT lThumb1
                {
                  OFFSET 0.786 0.112 2.5817
                  CHANNELS 3 Zrotation Xrotation Yrotation
                  JOINT lThumb2
                  {
                    OFFSET 0.3601 -0.878 4.2331
                    CHANNELS 3 Zrotation Xrotation Yrotation
                    JOINT lThumb2_End
                    {
                      OFFSET 1.8127 -1.216 2.2227
                      CHANNELS 3 Zrotation Xrotation Yrotation
                      End Site
                      {
                        OFFSET 0.0181 -0.0122 0.0222
                      }
                    }
                  }
                }
                JOINT lCarpal1
                {
                  OFFSET 0.9571 1.114 1.7695
                  CHANNELS 3 Zrotation Xrotation Yrotation
                  JOINT lIndex1
                  {
                    OFFSET 4.1246 0.487 4.1451
                    CHANNELS 3 Zrotation Xrotation Yrotation
                    JOINT lIndex2
                    {
                      OFFSET 3.4052 -1.454 2.7682
                      CHANNELS 3 Zrotation Xrotation Yrotation
                      JOINT lIndex2_End
                      {
                        OFFSET 1.4531 -1.795 1.2713
                        CHANNELS 3 Zrotation Xrotation Yrotation
                        End Site
                        {
                          OFFSET 0.0145 -0.0179 0.0127
                        }
                      }
                    }
                  }
                  JOINT lMid1
                  {
                    OFFSET 5.6954 0.21 2.1184
                    CHANNELS 3 Zrotation Xrotation Yrotation
                    JOINT lMid2
                    {
                      OFFSET 3.9766 -1.54 2.3863
                      CHANNELS 3 Zrotation Xrotation Yrotation
                      JOINT lMid2_End
                      {
                        OFFSET 1.4042 -1.926 1.125
                        CHANNELS 3 Zrotation Xrotation Yrotation
                        End Site
                        {
                          OFFSET 0.014 -0.0193 0.0113
                        }
                      }
                    }
                  }
                }
                JOINT lCarpal2
                {
                  OFFSET 2.0956 0.66 -0.3894
                  CHANNELS 3 Zrotation Xrotation Yrotation
                  JOINT lRing1
                  {
                    OFFSET 5.0395 -0.09 2.4971
                    CHANNELS 3 Zrotation Xrotation Yrotation
                    JOINT lRing2
                    {
                      OFFSET 3.7921 -1.552 1.4806
                      CHANNELS 3 Zrotation Xrotation Yrotation
                      JOINT lRing2_End
                      {
                        OFFSET 1.4655 -1.808 0.9609
                        CHANNELS 3 Zrotation Xrotation Yrotation
                        End Site
                        {
                          OFFSET 0.0147 -0.0181 0.0096
                        }
                      }
                    }
                  }
                  JOINT lPinky1
                  {
                    OFFSET 4.9141 -1.269 0.3591
                    CHANNELS 3 Zrotation Xrotation Yrotation
                    JOINT lPinky2
                    {
                      OFFSET 3.1477 -1.685 0.8462
                      CHANNELS 3 Zrotation Xrotation Yrotation
                      JOINT lPinky2_End
                      {
                        OFFSET 0.8055 -1.585 0.7955
                        CHANNELS 3 Zrotation Xrotation Yrotation
                        End Site
                        {
                          OFFSET 0.0081 -0.0158 0.008
                        }
                      }
                    }
                  }
                }
              }
            }
          }
        }
        JOINT rCollar
        {
          OFFSET -1.7069 20.075 5.0056
          CHANNELS 3 Zrotation Xrotation Yrotation
          JOINT rShldr
          {
            OFFSET -13.6458 -0.047 -4.849
            CHANNELS 3 Zrotation Xrotation Yrotation
            JOINT rForeArm
            {
              OFFSET -28.3255 -0.9759 2.2888
              CHANNELS 3 Zrotation Xrotation Yrotation
              JOINT rHand
              {
                OFFSET -22.1583 -0.53 10.8316
                CHANNELS 3 Zrotation Xrotation Yrotation
                JOINT rThumb1
                {
                  OFFSET -0.786 0.112 2.5817
                  CHANNELS 3 Zrotation Xrotation Yrotation
                  JOINT rThumb2
                  {
                    OFFSET -0.3601 -0.878 4.2331
                    CHANNELS 3 Zrotation Xrotation Yrotation
                    JOINT rThumb2_End
                    {
                      OFFSET -1.8127 -1.216 2.2227
                      CHANNELS 3 Zrotation Xrotation Yrotation
                      End Site
                      {
                        OFFSET -0.0181 -0.0122 0.0222
                      }
                    }
                  }
                }
                JOINT rCarpal1
                {
                  OFFSET -0.9571 1.114 1.7695
                  CHANNELS 3 Zrotation Xrotation Yrotation
                  JOINT rIndex1
                  {
                    OFFSET -4.1246 0.487 4.1451
                    CHANNELS 3 Zrotation Xrotation Yrotation
                    JOINT rIndex2
                    {
                      OFFSET -3.4052 -1.454 2.7682
                      CHANNELS 3 Zrotation Xrotation Yrotation
                      JOINT rIndex2_End
                      {
                        OFFSET -1.4531 -1.795 1.2713
                        CHANNELS 3 Zrotation Xrotation Yrotation
                        End Site
                        {
                          OFFSET -0.0145 -0.018 0.0127
                        }
                      }
                    }
                  }
                  JOINT rMid1
                  {
                    OFFSET -5.6954 0.21 2.1184
                    CHANNELS 3 Zrotation Xrotation Yrotation
                    JOINT rMid2
                    {
                      OFFSET -3.9766 -1.54 2.3863
                      CHANNELS 3 Zrotation Xrotation Yrotation
                      JOINT rMid2_End
                      {
                        OFFSET -1.4042 -1.926 1.125
                        CHANNELS 3 Zrotation Xrotation Yrotation
                        End Site
                        {
                          OFFSET -0.014 -0.0193 0.0113
                        }
                      }
                    }
                  }
                }
                JOINT rCarpal2
                {
                  OFFSET -2.0956 0.66 -0.3894
                  CHANNELS 3 Zrotation Xrotation Yrotation
                  JOINT rRing1
                  {
                    OFFSET -5.0395 -0.09 2.4971
                    CHANNELS 3 Zrotation Xrotation Yrotation
                    JOINT rRing2
                    {
                      OFFSET -3.7921 -1.552 1.4806
                      CHANNELS 3 Zrotation Xrotation Yrotation
                      JOINT rRing2_End
                      {
                        OFFSET -1.4655 -1.808 0.9609
                        CHANNELS 3 Zrotation Xrotation Yrotation
                        End Site
                        {
                          OFFSET -0.0147 -0.0181 0.0096
                        }
                      }
                    }
                  }
                  JOINT rPinky1
                  {
                    OFFSET -4.9141 -1.269 0.3592
                    CHANNELS 3 Zrotation Xrotation Yrotation
                    JOINT rPinky2
                    {
                      OFFSET -3.1477 -1.685 0.8462
                      CHANNELS 3 Zrotation Xrotation Yrotation
                      JOINT rPinky2_End
                      {
                        OFFSET -0.8055 -1.585 0.7955
                        CHANNELS 3 Zrotation Xrotation Yrotation
                        End Site
                        {
                          OFFSET -0.0081 -0.0158 0.008
                        }
                      }
                    }
                  }
                }
              }
            }
          }
        }
      }
    }
  }
  JOINT lThigh
  {
    OFFSET 8.367 -8.2066 0.5982
    CHANNELS 3 Zrotation Xrotation Yrotation
    JOINT lShin
    {
      OFFSET 2.1923 -43.463 -0.4932
      CHANNELS 3 Zrotation Xrotation Yrotation
      JOINT lFoot
      {
        OFFSET 0.7333 -45.8593 -2.6451
        CHANNELS 3 Zrotation Xrotation Yrotation
        End Site
        {
          OFFSET 2.6618 -4.2699 12.3931
        }
      }
    }
  }
  JOINT rThigh
  {
    OFFSET -8.367 -8.2066 0.5982
    CHANNELS 3 Zrotation Xrotation Yrotation
    JOINT rShin
    {
      OFFSET -2.1923 -43.463 -0.4931
      CHANNELS 3 Zrotation Xrotation Yrotation
      JOINT rFoot
      {
        OFFSET -0.7333 -45.8593 -2.6451
        CHANNELS 3 Zrotation Xrotation Yrotation
        End Site
        {
          OFFSET -2.6618 -4.2699 12.3931
        }
      }
    }
  }
}
MOTION
Frames:	5
Frame Time:	0.0333333
-5.91269 41.091 12.913 -2.08069e-015 35.1251 180 -0.930757 7.27436 -0.121126 -1.86877 14.5497 -0.12349 -1.86877 14.5497 -0.123489 14.9778 -20.6124 -14.6206 10.0631 -34.4846 23.9256 -21.1937 -18.5865 -25.9029 -8.93071 -22.1965 -16.0086 -19.6726 8.87804 -22.4945 -52.0238 3.40381 12.0459 -6.91961e-008 -1.40832e-007 -2.16705e-007 -3.18055e-015 -3.18055e-015 1.59028e-015 -4.89574e-007 5.04784e-007 4.84171e-007 -6.36111e-015 6.36111e-015 4.77083e-015 -6.91961e-008 -1.40832e-007 -2.16705e-007 -3.18055e-015 4.77083e-015 1.59028e-015 -4.89574e-007 5.04784e-007 4.84171e-007 -6.91961e-008 -1.40832e-007 -2.16705e-007 -3.18055e-015 4.77083e-015 1.59028e-015 -4.89574e-007 5.04784e-007 4.84171e-007 -6.36111e-015 6.36111e-015 4.77083e-015 -6.91961e-008 -1.40832e-007 -2.16705e-007 -3.18055e-015 4.77083e-015 1.59028e-015 -4.89574e-007 5.04784e-007 4.84171e-007 -6.91961e-008 -1.40832e-007 -2.16705e-007 -3.18055e-015 4.77083e-015 1.59028e-015 -4.89574e-007 5.04784e-007 4.84171e-007 14.5739 -18.8965 23.3169 14.2896 -17.0088 37.5 16.7845 8.94052 35.127 37.7995 -12.2683 17.8707 1.27258e-006 4.26189e-006 -8.66497e-007 1.38362e-006 7.47328e-007 -6.34337e-007 2.76724e-006 1.49466e-006 -1.26867e-006 4.41391e-031 7.95139e-015 -3.18055e-015 1.27258e-006 4.26189e-006 -8.66497e-007 1.38362e-006 7.47328e-007 -6.34337e-007 2.76724e-006 1.49466e-006 -1.26867e-006 1.27258e-006 4.26189e-006 -8.66497e-007 1.38362e-006 7.47328e-007 -6.34337e-007 2.76724e-006 1.49466e-006 -1.26867e-006 4.41391e-031 7.95139e-015 -3.18055e-015 1.27258e-006 4.26189e-006 -8.66497e-007 1.38362e-006 7.47328e-007 -6.34337e-007 2.76724e-006 1.49466e-006 -1.26867e-006 1.27258e-006 4.26189e-006 -8.66497e-007 1.38362e-006 7.47328e-007 -6.34337e-007 2.76724e-006 1.49466e-006 -1.26867e-006 98.5485 -46.4659 78.0445 174.546 71.2652 148.31 -23.615 55.0561 55.8754 -101.158 -46.1012 -82.1914 -174.781 63.6852 -149.404 14.4576 49.9395 -52.342 
-5.91156 41.2793 12.7533 -2.14912e-015 34.7496 180 -0.92952 7.09401 -0.127396 -1.86472 14.1891 -0.139378 -1.86472 14.1891 -0.139377 14.9396 -20.2322 -14.729 9.96312 -34.3276 23.7698 -21.4528 -18.0875 -25.9376 -8.93072 -22.1965 -16.0086 -19.5864 8.80294 -22.268 -51.9828 3.76582 12.1659 9.807e-007 -1.00908e-006 -9.67272e-007 3.18055e-015 0 -0 1.27222e-014 3.18055e-015 -1.59028e-015 -4.41391e-032 1.59028e-015 1.59028e-015 9.807e-007 -1.00908e-006 -9.67272e-007 1.76556e-031 6.36111e-015 -1.59028e-015 9.54166e-015 1.59028e-015 1.59028e-015 9.807e-007 -1.00908e-006 -9.67272e-007 1.76556e-031 6.36111e-015 -1.59028e-015 9.54166e-015 1.59028e-015 1.59028e-015 -4.41391e-032 1.59028e-015 1.59028e-015 9.807e-007 -1.00908e-006 -9.67272e-007 1.76556e-031 6.36111e-015 -1.59028e-015 9.54166e-015 1.59028e-015 1.59028e-015 9.807e-007 -1.00908e-006 -9.67272e-007 1.76556e-031 6.36111e-015 -1.59028e-015 9.54166e-015 1.59028e-015 1.59028e-015 14.6994 -17.9397 23.641 14.2896 -17.0088 37.5 16.5756 8.70125 34.2711 37.6756 -11.5463 18.27 5.83017e-007 3.88908e-006 -5.50219e-007 3.91845e-006 -5.32648e-008 4.90422e-006 4.50566e-007 6.61494e-006 -1.96714e-007 3.18055e-015 -4.77083e-015 3.18055e-015 5.83017e-007 3.88908e-006 -5.50219e-007 3.91845e-006 -5.32648e-008 4.90422e-006 4.50566e-007 6.61494e-006 -1.96714e-007 5.83017e-007 3.88908e-006 -5.50219e-007 3.91845e-006 -5.32648e-008 4.90422e-006 4.50566e-007 6.61494e-006 -1.96714e-007 3.18055e-015 -4.77083e-015 3.18055e-015 5.83017e-007 3.88908e-006 -5.50219e-007 3.91845e-006 -5.32648e-008 4.90422e-006 4.50566e-007 6.61494e-006 -1.96714e-007 5.83017e-007 3.88908e-006 -5.50219e-007 3.91845e-006 -5.32648e-008 4.90422e-006 4.50566e-007 6.61494e-006 -1.96714e-007 98.1822 -46.3052 77.7168 174.559 71.4014 148.252 -23.2699 54.612 55.4713 -100.637 -46.1318 -81.7651 -174.796 63.9534 -149.316 14.5729 49.5582 -52.3339 
-5.91038 41.4669 12.5932 -2.21693e-015 34.3741 180 -0.928277 6.91369 -0.133647 -1.86074 13.8286 -0.155194 -1.86074 13.8286 -0.155195 14.9028 -19.8526 -14.8367 9.86379 -34.1704 23.6146 -21.7108 -17.5883 -25.9698 -8.93072 -22.1965 -16.0087 -19.4998 8.72819 -22.0414 -51.9425 4.12791 12.2858 9.82267e-007 -1.00859e-006 -9.66185e-007 5.58014e-007 -3.35593e-007 -2.7609e-007 4.24253e-007 -6.72994e-007 -6.90095e-007 3.18055e-015 3.18055e-015 -1.59028e-015 9.82267e-007 -1.00859e-006 -9.66185e-007 5.58014e-007 -3.35593e-007 -2.7609e-007 4.24253e-007 -6.72994e-007 -6.90095e-007 9.82267e-007 -1.00859e-006 -9.66185e-007 5.58014e-007 -3.35593e-007 -2.7609e-007 4.24253e-007 -6.72994e-007 -6.90095e-007 3.18055e-015 3.18055e-015 -1.59028e-015 9.82267e-007 -1.00859e-006 -9.66185e-007 5.58014e-007 -3.35593e-007 -2.7609e-007 4.24253e-007 -6.72994e-007 -6.90095e-007 9.82267e-007 -1.00859e-006 -9.66185e-007 5.58014e-007 -3.35593e-007 -2.7609e-007 4.24253e-007 -6.72994e-007 -6.90095e-007 14.8186 -16.9825 23.9612 14.2896 -17.0089 37.5 16.3633 8.46514 33.4152 37.5468 -10.8252 18.6699 1.27774e-006 4.26323e-006 -8.67683e-007 2.87799e-006 -2.02411e-006 -1.03023e-006 3.80829e-006 3.46804e-006 4.67328e-006 -3.18055e-015 0 -3.18055e-015 1.27774e-006 4.26323e-006 -8.67683e-007 2.87799e-006 -2.02411e-006 -1.03023e-006 3.80829e-006 3.46804e-006 4.67328e-006 1.27774e-006 4.26323e-006 -8.67683e-007 2.87799e-006 -2.02411e-006 -1.03023e-006 3.80829e-006 3.46804e-006 4.67328e-006 -3.18055e-015 0 -3.18055e-015 1.27774e-006 4.26323e-006 -8.67683e-007 2.87799e-006 -2.02411e-006 -1.03023e-006 3.80829e-006 3.46804e-006 4.67328e-006 1.27774e-006 4.26323e-006 -8.67683e-007 2.87799e-006 -2.02411e-006 -1.03023e-006 3.80829e-006 3.46804e-006 4.67328e-006 97.8179 -46.1433 77.3914 174.572 71.5378 148.195 -22.9338 54.1664 55.0761 -100.116 -46.1602 -81.339 -174.812 64.2216 -149.228 14.6877 49.1768 -52.3251 
-5.90915 41.6538 12.4326 -2.28413e-015 33.9986 180 -0.92705 6.73335 -0.139883 -1.85687 13.4681 -0.170947 -1.85687 13.4681 -0.170948 14.8668 -19.4726 -14.944 9.76511 -34.0128 23.46 -21.9678 -17.089 -25.9996 -8.93072 -22.1965 -16.0086 -19.413 8.65376 -21.8148 -51.903 4.49002 12.4054 4.50164e-008 3.86033e-006 -4.03237e-006 9.83848e-007 -1.00809e-006 -9.65083e-007 3.18055e-015 3.18055e-015 3.18055e-015 -8.82781e-032 -3.18055e-015 -1.59028e-015 4.50164e-008 3.86033e-006 -4.03237e-006 9.83848e-007 -1.00809e-006 -9.65083e-007 3.18055e-015 -1.59028e-015 -0 4.50164e-008 3.86033e-006 -4.03237e-006 9.83848e-007 -1.00809e-006 -9.65083e-007 3.18055e-015 -1.59028e-015 -0 -8.82781e-032 -3.18055e-015 -1.59028e-015 4.50164e-008 3.86033e-006 -4.03237e-006 9.83848e-007 -1.00809e-006 -9.65083e-007 3.18055e-015 -1.59028e-015 -0 4.50164e-008 3.86033e-006 -4.03237e-006 9.83848e-007 -1.00809e-006 -9.65083e-007 3.18055e-015 -1.59028e-015 -0 14.9316 -16.0252 24.2775 14.2896 -17.0088 37.5 16.1477 8.23228 32.5592 37.4134 -10.1052 19.0703 -1.34341e-006 7.36516e-008 4.99843e-008 -8.41622e-007 2.32545e-006 6.60722e-007 -1.34341e-006 7.36519e-008 4.99844e-008 0 0 -0 -1.34341e-006 7.36516e-008 4.99843e-008 -8.41622e-007 2.32545e-006 6.60722e-007 -1.34341e-006 7.36519e-008 4.99844e-008 -1.34341e-006 7.36516e-008 4.99843e-008 -8.41622e-007 2.32545e-006 6.60722e-007 -1.34341e-006 7.36519e-008 4.99844e-008 0 0 -0 -1.34341e-006 7.36516e-008 4.99843e-008 -8.41622e-007 2.32545e-006 6.60722e-007 -1.34341e-006 7.36519e-008 4.99844e-008 -1.34341e-006 7.36516e-008 4.99843e-008 -8.41622e-007 2.32545e-006 6.60722e-007 -1.34341e-006 7.36519e-008 4.99844e-008 97.4562 -45.9801 77.0686 174.586 71.674 148.137 -22.6066 53.7196 54.6896 -99.5936 -46.1864 -80.9133 -174.828 64.4896 -149.141 14.802 48.7953 -52.3156 
-5.90786 41.8398 12.2715 -2.35073e-015 33.6232 180 -0.92587 6.55305 -0.146115 -1.85317 13.1076 -0.186653 -1.85317 13.1076 -0.186654 14.8319 -19.0927 -15.0507 9.66707 -33.8549 23.3059 -22.2238 -16.5897 -26.027 -8.93073 -22.1965 -16.0086 -19.3259 8.57969 -21.5881 -51.8643 4.85221 12.5248 -4.92724e-007 5.03795e-007 4.81982e-007 -9.85447e-007 1.00759e-006 9.63964e-007 4.92724e-007 -5.03795e-007 -4.81982e-007 -3.18055e-015 -9.54166e-015 -1.59028e-015 -4.92724e-007 5.03795e-007 4.81982e-007 -9.85447e-007 1.00759e-006 9.63964e-007 4.92724e-007 -5.03795e-007 -4.81982e-007 -4.92724e-007 5.03795e-007 4.81982e-007 -9.85447e-007 1.00759e-006 9.63964e-007 4.92724e-007 -5.03795e-007 -4.81982e-007 -3.18055e-015 -9.54166e-015 -1.59028e-015 -4.92724e-007 5.03795e-007 4.81982e-007 -9.85447e-007 1.00759e-006 9.63964e-007 4.92724e-007 -5.03795e-007 -4.81982e-007 -4.92724e-007 5.03795e-007 4.81982e-007 -9.85447e-007 1.00759e-006 9.63964e-007 4.92724e-007 -5.03795e-007 -4.81982e-007 15.0385 -15.0678 24.5903 14.2896 -17.0088 37.5 15.9289 8.00277 31.7033 37.2751 -9.38652 19.4714 -1.22877e-006 -3.429e-006 2.88962e-007 1.38686e-006 7.45705e-007 -6.3079e-007 -1.49141e-006 2.77372e-006 3.91773e-007 -6.36111e-015 -6.36111e-015 -0 -1.22877e-006 -3.429e-006 2.88962e-007 1.38686e-006 7.45705e-007 -6.3079e-007 -1.49141e-006 2.77372e-006 3.91773e-007 -1.22877e-006 -3.429e-006 2.88962e-007 1.38686e-006 7.45705e-007 -6.3079e-007 -1.49141e-006 2.77372e-006 3.91773e-007 -6.36111e-015 -6.36111e-015 -0 -1.22877e-006 -3.429e-006 2.88962e-007 1.38686e-006 7.45705e-007 -6.3079e-007 -1.49141e-006 2.77372e-006 3.91773e-007 -1.22877e-006 -3.429e-006 2.88962e-007 1.38686e-006 7.45705e-007 -6.3079e-007 -1.49141e-006 2.77372e-006 3.91773e-007 97.0966 -45.8155 76.7481 174.599 71.8102 148.08 -22.2878 53.2715 54.3112 -99.0711 -46.2104 -80.488 -174.844 64.7574 -149.054 14.9158 48.4136 -52.3055 
